<?xml version="1.0" encoding="utf-8"?>
<!-- Generator: Adobe Illustrator 27.5.0, SVG Export Plug-In . SVG Version: 6.00 Build 0)  -->
<svg version="1.1" xmlns="http://www.w3.org/2000/svg" xmlns:xlink="http://www.w3.org/1999/xlink" x="0px" y="0px"
	 viewBox="0 0 500 500" style="enable-background:new 0 0 500 500;" xml:space="preserve">
<g id="BACKGROUND">
	<rect style="fill:#50B5ED;" width="500" height="500"/>
</g>
<g id="OBJECTS">
	<g>
		<g>
			<path style="fill:#B5E5FF;" d="M360.885,109.172h-220.74c-1.97,0-3.579,1.61-3.579,3.579v21.924h227.899v-21.924
				C364.465,110.782,362.854,109.172,360.885,109.172z"/>
			<g>
				<g>
					<linearGradient id="SVGID_1_" gradientUnits="userSpaceOnUse" x1="143.2782" y1="316.9356" x2="143.2782" y2="242.1895">
						<stop  offset="0" style="stop-color:#FFFFFF"/>
						<stop  offset="1" style="stop-color:#BBDBF0"/>
					</linearGradient>
					<path style="fill:url(#SVGID_1_);" d="M148.474,278.177l-15.372-4.813c6.361-20.314,3.673-50.845,3.646-51.15l16.04-1.472
						C152.914,222.119,155.807,254.758,148.474,278.177z"/>
				</g>
				<g>
					
						<linearGradient id="SVGID_00000019665314160005314310000013902915672898249096_" gradientUnits="userSpaceOnUse" x1="161.0327" y1="316.9348" x2="161.0327" y2="242.1895">
						<stop  offset="0" style="stop-color:#FFFFFF"/>
						<stop  offset="1" style="stop-color:#BBDBF0"/>
					</linearGradient>
					<path style="fill:url(#SVGID_00000019665314160005314310000013902915672898249096_);" d="M167.806,305.321l-16.003-1.83
						c2.045-17.884,2.1-29.682,2.265-64.704c0.025-5.237,0.052-10.989,0.088-17.354l16.107,0.093
						c-0.036,6.357-0.064,12.104-0.088,17.337C170.008,274.544,169.951,286.564,167.806,305.321z"/>
				</g>
				<g>
					
						<linearGradient id="SVGID_00000040570014980558604260000012345408296932147340_" gradientUnits="userSpaceOnUse" x1="180.5323" y1="316.9353" x2="180.5323" y2="242.1898">
						<stop  offset="0" style="stop-color:#FFFFFF"/>
						<stop  offset="1" style="stop-color:#BBDBF0"/>
					</linearGradient>
					<path style="fill:url(#SVGID_00000040570014980558604260000012345408296932147340_);" d="M174.298,317.931
						c-5.067-23.95-2.795-93.761-2.697-96.722l16.1,0.539c-0.023,0.706-2.308,70.803,2.355,92.849L174.298,317.931z"/>
				</g>
				<g>
					
						<linearGradient id="SVGID_00000072241541500223215830000013415409474735717293_" gradientUnits="userSpaceOnUse" x1="197.5115" y1="316.9344" x2="197.5115" y2="242.1897">
						<stop  offset="0" style="stop-color:#FFFFFF"/>
						<stop  offset="1" style="stop-color:#BBDBF0"/>
					</linearGradient>
					<path style="fill:url(#SVGID_00000072241541500223215830000013415409474735717293_);" d="M205.118,298.159l-16.049-1.377
						c1.799-20.971-0.006-74.488-0.025-75.027l16.1-0.552C205.22,223.439,207.001,276.228,205.118,298.159z"/>
				</g>
				<g>
					
						<linearGradient id="SVGID_00000057833644517774825920000004758100674425665427_" gradientUnits="userSpaceOnUse" x1="216.6982" y1="316.9348" x2="216.6982" y2="242.1892">
						<stop  offset="0" style="stop-color:#FFFFFF"/>
						<stop  offset="1" style="stop-color:#BBDBF0"/>
					</linearGradient>
					<path style="fill:url(#SVGID_00000057833644517774825920000004758100674425665427_);" d="M211.559,316.771
						c-6.734-25.287-5.145-92.637-5.075-95.492l16.104,0.4c-0.017,0.676-1.605,67.883,4.538,90.946L211.559,316.771z"/>
				</g>
				<g>
					
						<linearGradient id="SVGID_00000127022417407031217300000017630778492263298179_" gradientUnits="userSpaceOnUse" x1="232.5889" y1="316.9355" x2="232.5889" y2="242.1897">
						<stop  offset="0" style="stop-color:#FFFFFF"/>
						<stop  offset="1" style="stop-color:#BBDBF0"/>
					</linearGradient>
					<path style="fill:url(#SVGID_00000127022417407031217300000017630778492263298179_);" d="M225.659,305.534
						c-3.189-22.548-1.794-81.742-1.732-84.251l16.103,0.392c-0.014,0.602-1.425,60.367,1.578,81.604L225.659,305.534z"/>
				</g>
				<g>
					
						<linearGradient id="SVGID_00000167354901170334002720000005053888312400448648_" gradientUnits="userSpaceOnUse" x1="247.7761" y1="316.935" x2="247.7761" y2="242.1893">
						<stop  offset="0" style="stop-color:#FFFFFF"/>
						<stop  offset="1" style="stop-color:#BBDBF0"/>
					</linearGradient>
					<path style="fill:url(#SVGID_00000167354901170334002720000005053888312400448648_);" d="M253.266,316.797l-15.55-4.198
						c4.7-17.41,4.23-71.506,3.653-90.879l16.101-0.481C257.558,224.181,259.545,293.543,253.266,316.797z"/>
				</g>
				<g>
					
						<linearGradient id="SVGID_00000159444842974067913790000000794291065616775871_" gradientUnits="userSpaceOnUse" x1="267.1721" y1="316.9353" x2="267.1721" y2="242.1899">
						<stop  offset="0" style="stop-color:#FFFFFF"/>
						<stop  offset="1" style="stop-color:#BBDBF0"/>
					</linearGradient>
					<path style="fill:url(#SVGID_00000159444842974067913790000000794291065616775871_);" d="M260.357,307.695
						c-3.884-24.224-1.642-83.993-1.544-86.525l16.096,0.618c-0.022,0.605-2.279,60.701,1.354,83.356L260.357,307.695z"/>
				</g>
				<g>
					
						<linearGradient id="SVGID_00000057140098537155488420000014375716630183210429_" gradientUnits="userSpaceOnUse" x1="284.3032" y1="316.9349" x2="284.3032" y2="242.1893">
						<stop  offset="0" style="stop-color:#FFFFFF"/>
						<stop  offset="1" style="stop-color:#BBDBF0"/>
					</linearGradient>
					
						<rect x="276.249" y="221.479" style="fill:url(#SVGID_00000057140098537155488420000014375716630183210429_);" width="16.108" height="68.759"/>
				</g>
				<g>
					
						<linearGradient id="SVGID_00000086691522025308396050000006466280030586183323_" gradientUnits="userSpaceOnUse" x1="300.9444" y1="316.9351" x2="300.9444" y2="242.1898">
						<stop  offset="0" style="stop-color:#FFFFFF"/>
						<stop  offset="1" style="stop-color:#BBDBF0"/>
					</linearGradient>
					<path style="fill:url(#SVGID_00000086691522025308396050000006466280030586183323_);" d="M307.017,308.3l-15.664-3.76
						c5.043-21.012,2.374-82.086,2.346-82.7l16.093-0.722C309.907,223.719,312.587,285.088,307.017,308.3z"/>
				</g>
				<g>
					
						<linearGradient id="SVGID_00000139274438831252497280000001148470191484946056_" gradientUnits="userSpaceOnUse" x1="322.5952" y1="316.9344" x2="322.5952" y2="242.1894">
						<stop  offset="0" style="stop-color:#FFFFFF"/>
						<stop  offset="1" style="stop-color:#BBDBF0"/>
					</linearGradient>
					<path style="fill:url(#SVGID_00000139274438831252497280000001148470191484946056_);" d="M319.932,319.835
						c-11.097-22.427-9.061-90.901-8.793-98.636l16.098,0.559c-0.688,19.892-0.749,75.005,7.132,90.935L319.932,319.835z"/>
				</g>
				<g>
					
						<linearGradient id="SVGID_00000134217985027655657430000006172748323994832004_" gradientUnits="userSpaceOnUse" x1="338.8608" y1="316.9346" x2="338.8608" y2="242.1891">
						<stop  offset="0" style="stop-color:#FFFFFF"/>
						<stop  offset="1" style="stop-color:#BBDBF0"/>
					</linearGradient>
					<path style="fill:url(#SVGID_00000134217985027655657430000006172748323994832004_);" d="M333.342,305.959
						c-4.713-23.984-4.768-82.021-4.768-84.481h16.108c0,0.587,0.053,58.923,4.465,81.375L333.342,305.959z"/>
				</g>
				<g>
					
						<linearGradient id="SVGID_00000016056925577955189810000017307862423543740559_" gradientUnits="userSpaceOnUse" x1="356.4575" y1="316.936" x2="356.4575" y2="242.1896">
						<stop  offset="0" style="stop-color:#FFFFFF"/>
						<stop  offset="1" style="stop-color:#BBDBF0"/>
					</linearGradient>
					<path style="fill:url(#SVGID_00000016056925577955189810000017307862423543740559_);" d="M351.387,281.521
						c-5.309-18.969-5.37-58.373-5.37-60.042l16.108-0.001c0,0.388,0.06,38.858,4.773,55.701L351.387,281.521z"/>
				</g>
			</g>
			
				<linearGradient id="SVGID_00000072998107282703923300000004683933383982299535_" gradientUnits="userSpaceOnUse" x1="250.5151" y1="212.233" x2="250.5151" y2="232.9536">
				<stop  offset="0" style="stop-color:#FFFFFF"/>
				<stop  offset="1" style="stop-color:#BBDBF0"/>
			</linearGradient>
			<path style="fill:url(#SVGID_00000072998107282703923300000004683933383982299535_);" d="M224.46,127.22
				c-1.969,0-4.17-1.499-4.893-3.33l-3.054-7.744c-0.723-1.83-2.924-3.329-4.894-3.329h-56.287c-1.969,0-4.17,1.499-4.893,3.329
				l-3.054,7.744c-0.723,1.831-2.925,3.33-4.894,3.33h-2.349c-1.97,0-3.579,1.61-3.579,3.579v100.825c0,1.969,1.609,3.58,3.579,3.58
				h220.74c1.97,0,3.58-1.611,3.58-3.58V130.799c0-1.969-1.61-3.579-3.58-3.579H224.46z"/>
			<text transform="matrix(1 0 0 1 156.1387 122.1298)" style="fill:#5E5E5E; font-family:'BloggerSans'; font-size:6.8258px;">not found</text>
			<g>
				<path style="fill:#5E5E5E;" d="M208.924,121.885c-0.204,0.204-0.533,0.204-0.737,0l0,0c-0.204-0.204-0.204-0.534,0-0.738
					l4.219-4.219c0.204-0.204,0.533-0.204,0.738,0l0,0c0.203,0.204,0.203,0.534,0,0.737L208.924,121.885z"/>
				<path style="fill:#5E5E5E;" d="M208.186,117.665c-0.204-0.204-0.204-0.532,0-0.737l0,0c0.204-0.203,0.533-0.204,0.737-0.001
					l4.22,4.22c0.204,0.204,0.202,0.534-0.001,0.738l0,0c-0.204,0.204-0.532,0.204-0.737,0L208.186,117.665z"/>
			</g>
			<g>
				<path style="fill:#5E5E5E;" d="M353.548,121.885c-0.204,0.204-0.533,0.204-0.738,0l0,0c-0.203-0.204-0.203-0.534,0-0.738
					l4.22-4.219c0.204-0.204,0.533-0.204,0.737,0l0,0c0.204,0.204,0.204,0.534,0,0.737L353.548,121.885z"/>
				<path style="fill:#5E5E5E;" d="M352.81,117.665c-0.203-0.204-0.203-0.532,0-0.737l0,0c0.205-0.203,0.534-0.204,0.738-0.001
					l4.219,4.22c0.205,0.204,0.203,0.534,0,0.738l0,0c-0.204,0.204-0.533,0.204-0.737,0L352.81,117.665z"/>
			</g>
			<path style="fill:#E0F1FC;" d="M343.617,149.561c0,0.674-0.547,1.221-1.222,1.221H158.633c-0.675,0-1.221-0.547-1.221-1.221
				v-12.174c0-0.675,0.546-1.222,1.221-1.222h183.763c0.675,0,1.222,0.547,1.222,1.222V149.561z"/>
			
				<rect x="344.048" y="117.209" style="fill:none;stroke:#5E5E5E;stroke-linecap:round;stroke-linejoin:round;stroke-miterlimit:10;" width="4.393" height="4.393"/>
			
				<line style="fill:none;stroke:#5E5E5E;stroke-linecap:round;stroke-linejoin:round;stroke-miterlimit:10;" x1="339.397" y1="121.603" x2="335.004" y2="121.603"/>
			<g>
				<g>
					<g>
						<g>
							<path style="fill:#5E5E5E;" d="M210.259,169.905c-1.05-1.054-1.05-2.749,0-3.805l0,0c1.055-1.05,2.753-1.054,3.804-0.005
								l14.365,14.364c1.054,1.05,1.046,2.754-0.005,3.809l0,0c-1.051,1.049-2.746,1.049-3.8,0L210.259,169.905z"/>
						</g>
						<g>
							<path style="fill:#5E5E5E;" d="M228.427,169.905c1.05-1.054,1.05-2.749,0-3.805l0,0c-1.057-1.05-2.755-1.054-3.806-0.005
								l-14.364,14.364c-1.055,1.05-1.045,2.754,0.004,3.809l0,0c1.051,1.049,2.746,1.049,3.8,0L228.427,169.905z"/>
						</g>
					</g>
					<g>
						<g>
							<path style="fill:#5E5E5E;" d="M272.602,169.905c-1.05-1.054-1.05-2.749,0-3.805l0,0c1.057-1.05,2.755-1.054,3.806-0.005
								l14.364,14.364c1.055,1.05,1.045,2.754-0.004,3.809l0,0c-1.051,1.049-2.746,1.049-3.8,0L272.602,169.905z"/>
						</g>
						<g>
							<path style="fill:#5E5E5E;" d="M290.771,169.905c1.051-1.054,1.051-2.749,0-3.805l0,0c-1.055-1.05-2.753-1.054-3.804-0.005
								l-14.365,14.364c-1.054,1.05-1.046,2.754,0.005,3.809l0,0c1.051,1.049,2.746,1.049,3.8,0L290.771,169.905z"/>
						</g>
					</g>
				</g>
				<g>
					<path style="fill:#5E5E5E;" d="M260.67,198.346c1.489-0.004,2.686-1.202,2.69-2.69l0,0c-0.001-1.489-1.2-2.692-2.685-2.693
						l-20.314-0.001c-1.488-0.003-2.688,1.209-2.691,2.698l0,0c0.001,1.483,1.199,2.683,2.687,2.687H260.67z"/>
				</g>
			</g>
			<g>
				<path style="fill:#8F8F8F;" d="M358.584,139.595c0,0.413-0.334,0.746-0.745,0.746h-8.577c-0.411,0-0.745-0.333-0.745-0.746l0,0
					c0-0.41,0.334-0.744,0.745-0.744h8.577C358.25,138.851,358.584,139.185,358.584,139.595L358.584,139.595z"/>
				<path style="fill:#8F8F8F;" d="M358.584,143.474c0,0.412-0.334,0.746-0.745,0.746h-8.577c-0.411,0-0.745-0.334-0.745-0.746l0,0
					c0-0.411,0.334-0.745,0.745-0.745h8.577C358.25,142.729,358.584,143.063,358.584,143.474L358.584,143.474z"/>
				<path style="fill:#8F8F8F;" d="M358.584,147.352c0,0.413-0.334,0.747-0.745,0.747h-8.577c-0.411,0-0.745-0.334-0.745-0.747l0,0
					c0-0.41,0.334-0.744,0.745-0.744h8.577C358.25,146.607,358.584,146.941,358.584,147.352L358.584,147.352z"/>
			</g>
			<path style="fill:#8F8F8F;" d="M154.657,142.017c-0.236-0.215-0.605-0.197-0.822,0.038l-0.556,0.611
				c-0.222-2.585-2.394-4.621-5.034-4.621c-2.788,0-5.057,2.269-5.057,5.056c0,2.788,2.269,5.057,5.057,5.057
				c0.321,0,0.582-0.26,0.582-0.582c0-0.321-0.261-0.582-0.582-0.582c-2.146,0-3.893-1.746-3.893-3.893
				c0-2.146,1.746-3.892,3.893-3.892c2.015,0,3.657,1.545,3.853,3.509l-0.607-0.554c-0.236-0.216-0.605-0.198-0.821,0.039
				c-0.217,0.236-0.199,0.605,0.038,0.821l1.656,1.509c0.107,0.099,0.246,0.152,0.392,0.152c0.009,0,0.019-0.001,0.027-0.001
				c0.153-0.007,0.299-0.075,0.403-0.189l1.509-1.657C154.912,142.601,154.895,142.232,154.657,142.017z"/>
		</g>
		<g>
			<path style="opacity:0.5;fill:#FFFFFF;" d="M362.214,340.626c-0.22,1.261-1.412,2.279-2.666,2.279H139.423
				c-1.254,0-2.448-1.019-2.667-2.279L118.133,233.01c-0.302-1.743,0.655-3.16,2.138-3.16H378.7c1.482,0,2.439,1.416,2.138,3.159
				L362.214,340.626z"/>
			<path style="fill:#D9D9D9;" d="M378.7,229.85h-258.43c-1.482,0-2.439,1.417-2.138,3.16l3.333,19.26h256.039l3.333-19.261
				C381.14,231.266,380.183,229.85,378.7,229.85z"/>
			<path style="fill:#AED948;" d="M385.727,237.903c0,1.483-1.202,2.685-2.685,2.685H116.958c-1.482,0-2.685-1.201-2.685-2.685
				v-27.742c0-1.482,1.202-2.685,2.685-2.685h266.084c1.482,0,2.685,1.202,2.685,2.685V237.903z"/>
			<g>
				<path style="fill:#97BD3F;" d="M125.609,234.92c0,1.235-1.001,2.237-2.237,2.237l0,0c-1.236,0-2.237-1.002-2.237-2.237v-21.774
					c0-1.236,1.001-2.237,2.237-2.237l0,0c1.236,0,2.237,1.001,2.237,2.237V234.92z"/>
				<path style="fill:#97BD3F;" d="M140.507,234.92c0,1.235-1.002,2.237-2.238,2.237l0,0c-1.235,0-2.236-1.002-2.236-2.237v-21.774
					c0-1.236,1.001-2.237,2.236-2.237l0,0c1.236,0,2.238,1.001,2.238,2.237V234.92z"/>
				<path style="fill:#97BD3F;" d="M155.405,234.92c0,1.235-1.002,2.237-2.238,2.237l0,0c-1.236,0-2.237-1.002-2.237-2.237v-21.774
					c0-1.236,1.001-2.237,2.237-2.237l0,0c1.236,0,2.238,1.001,2.238,2.237V234.92z"/>
				<path style="fill:#97BD3F;" d="M170.302,234.92c0,1.235-1.002,2.237-2.237,2.237l0,0c-1.235,0-2.238-1.002-2.238-2.237v-21.774
					c0-1.236,1.003-2.237,2.238-2.237l0,0c1.235,0,2.237,1.001,2.237,2.237V234.92z"/>
				<path style="fill:#97BD3F;" d="M185.198,234.92c0,1.235-1.001,2.237-2.236,2.237l0,0c-1.236,0-2.238-1.002-2.238-2.237v-21.774
					c0-1.236,1.002-2.237,2.238-2.237l0,0c1.235,0,2.236,1.001,2.236,2.237V234.92z"/>
				<path style="fill:#97BD3F;" d="M200.097,234.92c0,1.235-1.002,2.237-2.237,2.237l0,0c-1.235,0-2.237-1.002-2.237-2.237v-21.774
					c0-1.236,1.002-2.237,2.237-2.237l0,0c1.235,0,2.237,1.001,2.237,2.237V234.92z"/>
				<path style="fill:#97BD3F;" d="M214.994,234.92c0,1.235-1.001,2.237-2.237,2.237l0,0c-1.236,0-2.237-1.002-2.237-2.237v-21.774
					c0-1.236,1.001-2.237,2.237-2.237l0,0c1.236,0,2.237,1.001,2.237,2.237V234.92z"/>
				<path style="fill:#97BD3F;" d="M229.892,234.92c0,1.235-1.002,2.237-2.238,2.237l0,0c-1.235,0-2.236-1.002-2.236-2.237v-21.774
					c0-1.236,1.001-2.237,2.236-2.237l0,0c1.236,0,2.238,1.001,2.238,2.237V234.92z"/>
				<path style="fill:#97BD3F;" d="M244.788,234.92c0,1.235-1.001,2.237-2.236,2.237l0,0c-1.236,0-2.238-1.002-2.238-2.237v-21.774
					c0-1.236,1.002-2.237,2.238-2.237l0,0c1.235,0,2.236,1.001,2.236,2.237V234.92z"/>
				<path style="fill:#97BD3F;" d="M259.686,234.92c0,1.235-1.002,2.237-2.238,2.237l0,0c-1.235,0-2.236-1.002-2.236-2.237v-21.774
					c0-1.236,1.001-2.237,2.236-2.237l0,0c1.236,0,2.238,1.001,2.238,2.237V234.92z"/>
				<path style="fill:#97BD3F;" d="M274.583,234.92c0,1.235-1.001,2.237-2.236,2.237l0,0c-1.236,0-2.238-1.002-2.238-2.237v-21.774
					c0-1.236,1.002-2.237,2.238-2.237l0,0c1.235,0,2.236,1.001,2.236,2.237V234.92z"/>
				<path style="fill:#97BD3F;" d="M289.48,234.92c0,1.235-1.002,2.237-2.237,2.237l0,0c-1.236,0-2.237-1.002-2.237-2.237v-21.774
					c0-1.236,1.001-2.237,2.237-2.237l0,0c1.235,0,2.237,1.001,2.237,2.237V234.92z"/>
				<path style="fill:#97BD3F;" d="M304.378,234.92c0,1.235-1.001,2.237-2.237,2.237l0,0c-1.235,0-2.237-1.002-2.237-2.237v-21.774
					c0-1.236,1.002-2.237,2.237-2.237l0,0c1.236,0,2.237,1.001,2.237,2.237V234.92z"/>
				<path style="fill:#97BD3F;" d="M319.276,234.92c0,1.235-1.002,2.237-2.238,2.237l0,0c-1.235,0-2.236-1.002-2.236-2.237v-21.774
					c0-1.236,1.001-2.237,2.236-2.237l0,0c1.236,0,2.238,1.001,2.238,2.237V234.92z"/>
				<path style="fill:#97BD3F;" d="M334.173,234.92c0,1.235-1.002,2.237-2.237,2.237l0,0c-1.235,0-2.237-1.002-2.237-2.237v-21.774
					c0-1.236,1.002-2.237,2.237-2.237l0,0c1.235,0,2.237,1.001,2.237,2.237V234.92z"/>
				<path style="fill:#97BD3F;" d="M349.07,234.92c0,1.235-1.001,2.237-2.237,2.237l0,0c-1.235,0-2.238-1.002-2.238-2.237v-21.774
					c0-1.236,1.003-2.237,2.238-2.237l0,0c1.236,0,2.237,1.001,2.237,2.237V234.92z"/>
				<path style="fill:#97BD3F;" d="M363.968,234.92c0,1.235-1.002,2.237-2.237,2.237l0,0c-1.236,0-2.236-1.002-2.236-2.237v-21.774
					c0-1.236,1-2.237,2.236-2.237l0,0c1.235,0,2.237,1.001,2.237,2.237V234.92z"/>
				<path style="fill:#97BD3F;" d="M378.865,234.92c0,1.235-1.001,2.237-2.237,2.237l0,0c-1.235,0-2.237-1.002-2.237-2.237v-21.774
					c0-1.236,1.002-2.237,2.237-2.237l0,0c1.236,0,2.237,1.001,2.237,2.237V234.92z"/>
			</g>
		</g>
	</g>
	<rect x="103.667" y="342.905" style="fill:#3899CF;" width="292.666" height="7.205"/>
	<text transform="matrix(1 0 0 1 205.1338 88.9424)" style="fill:#FFFFFF; font-family:'BloggerSans-Bold'; font-size:18.3543px;">ERROR 404</text>
	<text transform="matrix(1 0 0 1 206.1704 383.9248)"><tspan x="0" y="0" style="fill:#FFFFFF; font-family:'BloggerSans-Light'; font-size:12.071px;">page is not found.</tspan><tspan x="-49.942" y="14.485" style="fill:#FFFFFF; font-family:'BloggerSans-Light'; font-size:12.071px;">the page is doesnt exist or was deleted</tspan></text>
	<g>
		<path style="fill:#AED948;" d="M291.33,431.772c0,4.624-3.75,8.37-8.371,8.37h-65.918c-4.625,0-8.371-3.746-8.371-8.37v-5.58
			c0-4.624,3.746-8.37,8.371-8.37h65.918c4.621,0,8.371,3.746,8.371,8.37V431.772z"/>
		<text transform="matrix(1 0 0 1 223.167 432.6533)" style="fill:#FFFFFF; font-family:'BloggerSans'; font-size:12.5302px;">back home</text>
	</g>
</g>
<g id="DESIGNED_BY_FREEPIK">
	<g id="XMLID_2260_">
		<g id="XMLID_2297_">
			<path id="XMLID_2318_" style="fill:#FFFFFF;" d="M181.09,472.133c-0.246,0-0.434,0.086-0.566,0.256
				c-0.133,0.17-0.199,0.42-0.199,0.752v2.393c-0.305-0.332-0.617-0.578-0.938-0.738c-0.32-0.16-0.715-0.24-1.182-0.24
				c-0.807,0-1.457,0.283-1.953,0.848c-0.494,0.566-0.742,1.355-0.742,2.369c0,0.478,0.064,0.924,0.188,1.336
				c0.125,0.412,0.309,0.77,0.551,1.074c0.24,0.305,0.525,0.539,0.857,0.703c0.33,0.164,0.688,0.246,1.076,0.246
				c0.293,0,0.563-0.041,0.811-0.123c0.246-0.08,0.477-0.199,0.688-0.355c0.213-0.156,0.428-0.359,0.644-0.607v0.16
				c0,0.297,0.072,0.525,0.217,0.685c0.145,0.16,0.328,0.24,0.549,0.24c0.227,0,0.41-0.078,0.553-0.232
				c0.143-0.154,0.213-0.385,0.213-0.693v-7.147c0-0.305-0.066-0.535-0.199-0.691C181.523,472.211,181.334,472.133,181.09,472.133z
				 M180.025,478.975c-0.141,0.305-0.33,0.533-0.564,0.682c-0.236,0.148-0.496,0.223-0.781,0.223c-0.279,0-0.539-0.078-0.777-0.236
				c-0.236-0.154-0.424-0.387-0.561-0.695c-0.137-0.311-0.205-0.684-0.205-1.123c0-0.414,0.065-0.779,0.193-1.096
				c0.129-0.314,0.311-0.555,0.543-0.723c0.234-0.168,0.5-0.252,0.795-0.252c0.285,0,0.547,0.082,0.787,0.244
				c0.24,0.166,0.43,0.404,0.57,0.713c0.141,0.311,0.209,0.682,0.209,1.113C180.234,478.283,180.166,478.666,180.025,478.975z"/>
			<path id="XMLID_2315_" style="fill:#FFFFFF;" d="M188.455,478.053c0.232-0.121,0.35-0.385,0.35-0.793
				c0-0.438-0.113-0.869-0.338-1.293s-0.564-0.77-1.02-1.035c-0.451-0.268-0.994-0.4-1.627-0.4c-0.488,0-0.93,0.078-1.33,0.234
				c-0.4,0.156-0.736,0.381-1.01,0.674c-0.271,0.293-0.48,0.642-0.623,1.053c-0.143,0.41-0.213,0.854-0.213,1.332
				c0,1.018,0.289,1.822,0.867,2.416c0.576,0.592,1.387,0.891,2.426,0.891c0.457,0,0.859-0.061,1.207-0.178
				c0.352-0.121,0.643-0.268,0.875-0.449c0.23-0.18,0.402-0.367,0.52-0.564c0.113-0.195,0.17-0.365,0.17-0.514
				c0-0.166-0.051-0.293-0.154-0.385c-0.102-0.09-0.236-0.137-0.402-0.137c-0.154,0-0.273,0.035-0.357,0.107
				c-0.201,0.19-0.365,0.34-0.492,0.451c-0.125,0.111-0.264,0.215-0.414,0.313c-0.15,0.098-0.307,0.166-0.467,0.213
				c-0.16,0.045-0.338,0.068-0.531,0.068c-0.289,0-0.553-0.07-0.791-0.213c-0.24-0.143-0.434-0.355-0.576-0.637
				c-0.145-0.281-0.219-0.605-0.223-0.973h3.168C187.893,478.234,188.223,478.174,188.455,478.053z M184.301,477.315
				c0.055-0.547,0.213-0.959,0.471-1.238c0.26-0.279,0.59-0.418,0.994-0.418c0.424,0,0.766,0.137,1.025,0.412
				c0.258,0.275,0.408,0.689,0.447,1.244H184.301z"/>
			<path id="XMLID_2314_" style="fill:#FFFFFF;" d="M193.881,477.617c-0.318-0.17-0.729-0.316-1.23-0.439
				c-0.424-0.104-0.756-0.191-0.996-0.262c-0.242-0.07-0.434-0.16-0.576-0.269c-0.143-0.109-0.215-0.248-0.215-0.418
				c0-0.188,0.098-0.342,0.291-0.465c0.195-0.127,0.438-0.188,0.73-0.188c0.285,0,0.51,0.047,0.676,0.143
				c0.166,0.094,0.313,0.221,0.434,0.379c0.15,0.189,0.283,0.332,0.4,0.426c0.117,0.096,0.258,0.145,0.424,0.145
				c0.23,0,0.408-0.061,0.531-0.178c0.125-0.119,0.189-0.271,0.189-0.457c0-0.172-0.061-0.346-0.178-0.523
				c-0.115-0.178-0.285-0.34-0.51-0.486c-0.223-0.146-0.502-0.264-0.838-0.35c-0.332-0.088-0.709-0.131-1.129-0.131
				c-0.535,0-0.99,0.084-1.367,0.258c-0.379,0.172-0.664,0.402-0.859,0.691c-0.193,0.289-0.291,0.596-0.291,0.92
				c0,0.363,0.105,0.67,0.316,0.92c0.209,0.25,0.488,0.451,0.838,0.603c0.352,0.15,0.805,0.297,1.363,0.434
				c0.494,0.121,0.848,0.244,1.064,0.375c0.217,0.131,0.324,0.338,0.324,0.623c0,0.186-0.104,0.352-0.313,0.496
				c-0.207,0.145-0.473,0.217-0.797,0.217c-0.4,0-0.715-0.07-0.947-0.213c-0.23-0.145-0.432-0.357-0.598-0.648
				c-0.08-0.148-0.168-0.266-0.26-0.35c-0.092-0.082-0.221-0.125-0.391-0.125c-0.195,0-0.355,0.064-0.48,0.191
				c-0.129,0.125-0.191,0.277-0.191,0.455c0,0.27,0.1,0.537,0.297,0.805c0.197,0.268,0.504,0.49,0.92,0.668
				c0.416,0.178,0.914,0.268,1.496,0.268c0.607,0,1.125-0.082,1.551-0.246c0.426-0.164,0.748-0.406,0.965-0.725
				c0.219-0.318,0.326-0.701,0.326-1.148c0-0.297-0.082-0.56-0.246-0.793C194.441,477.988,194.199,477.787,193.881,477.617z"/>
			<path id="XMLID_2313_" style="fill:#FFFFFF;" d="M196.488,474.543c-0.236,0-0.43,0.08-0.578,0.242
				c-0.149,0.162-0.223,0.404-0.223,0.725v4.635c0,0.316,0.074,0.561,0.223,0.73c0.148,0.17,0.342,0.256,0.578,0.256
				c0.238,0,0.434-0.084,0.588-0.25c0.154-0.166,0.232-0.412,0.232-0.736v-4.682c0-0.289-0.078-0.516-0.232-0.678
				C196.922,474.623,196.727,474.543,196.488,474.543z"/>
			<path id="XMLID_2312_" style="fill:#FFFFFF;" d="M196.508,472.203c-0.219,0-0.41,0.074-0.574,0.223
				c-0.164,0.15-0.246,0.338-0.246,0.568c0,0.254,0.08,0.449,0.24,0.588c0.16,0.137,0.354,0.207,0.58,0.207
				c0.217,0,0.406-0.07,0.563-0.211c0.158-0.141,0.238-0.336,0.238-0.584c0-0.258-0.082-0.453-0.244-0.588
				C196.902,472.272,196.717,472.203,196.508,472.203z"/>
			<path id="XMLID_2309_" style="fill:#FFFFFF;" d="M203.629,474.543c-0.217,0-0.396,0.076-0.535,0.23
				c-0.139,0.154-0.207,0.373-0.207,0.652v0.221c-0.289-0.375-0.601-0.65-0.938-0.828c-0.338-0.176-0.734-0.264-1.193-0.264
				c-0.383,0-0.736,0.068-1.057,0.203c-0.32,0.139-0.604,0.34-0.85,0.609c-0.244,0.27-0.432,0.6-0.566,0.992
				c-0.133,0.391-0.197,0.83-0.197,1.316c0,0.654,0.107,1.228,0.328,1.728c0.215,0.498,0.527,0.885,0.932,1.162
				c0.406,0.277,0.881,0.416,1.422,0.416c0.451,0,0.84-0.092,1.166-0.273c0.326-0.182,0.613-0.447,0.863-0.797
				c-0.008,0.531-0.02,0.916-0.035,1.156c-0.016,0.24-0.07,0.465-0.164,0.674c-0.092,0.209-0.254,0.373-0.486,0.488
				c-0.23,0.117-0.557,0.176-0.977,0.176c-0.205,0-0.387-0.02-0.545-0.057c-0.158-0.037-0.295-0.094-0.406-0.17
				c-0.113-0.078-0.217-0.172-0.309-0.281c-0.094-0.107-0.184-0.217-0.27-0.322c-0.18-0.211-0.387-0.315-0.625-0.315
				c-0.189,0-0.352,0.061-0.486,0.188c-0.135,0.123-0.201,0.283-0.201,0.482c0,0.262,0.121,0.516,0.355,0.764
				c0.238,0.246,0.576,0.447,1.016,0.605c0.439,0.154,0.938,0.232,1.496,0.232c0.607,0,1.119-0.061,1.527-0.184
				c0.41-0.121,0.74-0.311,0.994-0.563c0.254-0.254,0.438-0.574,0.551-0.961c0.115-0.389,0.174-0.852,0.174-1.391v-4.705
				c0-0.385-0.051-0.678-0.156-0.883C204.148,474.645,203.941,474.543,203.629,474.543z M202.602,478.908
				c-0.15,0.291-0.346,0.508-0.586,0.652c-0.238,0.145-0.492,0.217-0.762,0.217c-0.455,0-0.826-0.168-1.111-0.504
				c-0.287-0.336-0.432-0.834-0.432-1.49c0-0.648,0.139-1.15,0.418-1.502c0.279-0.352,0.65-0.527,1.113-0.527
				c0.475,0,0.857,0.184,1.148,0.553c0.291,0.367,0.438,0.881,0.438,1.541C202.828,478.264,202.752,478.617,202.602,478.908z"/>
			<path id="XMLID_2308_" style="fill:#FFFFFF;" d="M210.98,475.609c-0.164-0.338-0.416-0.602-0.752-0.787
				c-0.336-0.188-0.719-0.279-1.146-0.279c-0.439,0-0.826,0.088-1.166,0.264c-0.338,0.176-0.65,0.451-0.934,0.828v-0.195
				c0-0.193-0.035-0.359-0.104-0.494c-0.07-0.133-0.162-0.234-0.277-0.301c-0.115-0.068-0.242-0.102-0.387-0.102
				c-0.232,0-0.416,0.076-0.551,0.229c-0.135,0.152-0.201,0.383-0.201,0.691v4.682c0,0.316,0.076,0.561,0.225,0.73
				c0.15,0.17,0.342,0.256,0.576,0.256c0.24,0,0.439-0.082,0.59-0.246c0.152-0.164,0.229-0.412,0.229-0.74v-2.029
				c0-0.66,0.041-1.111,0.119-1.354c0.111-0.299,0.285-0.537,0.521-0.709c0.238-0.172,0.5-0.258,0.789-0.258
				c0.443,0,0.74,0.143,0.889,0.424c0.148,0.283,0.223,0.691,0.223,1.227v2.699c0,0.316,0.074,0.561,0.227,0.73
				c0.15,0.17,0.346,0.256,0.586,0.256c0.238,0,0.432-0.084,0.578-0.25c0.15-0.166,0.225-0.412,0.225-0.736v-3.016
				c0-0.355-0.018-0.647-0.049-0.877C211.158,476.023,211.088,475.809,210.98,475.609z"/>
			<path id="XMLID_2305_" style="fill:#FFFFFF;" d="M217.824,478.053c0.234-0.121,0.352-0.385,0.352-0.793
				c0-0.438-0.113-0.869-0.34-1.293c-0.225-0.424-0.564-0.77-1.018-1.035c-0.453-0.268-0.996-0.4-1.629-0.4
				c-0.486,0-0.93,0.078-1.33,0.234c-0.398,0.156-0.734,0.381-1.008,0.674c-0.273,0.293-0.48,0.642-0.623,1.053
				c-0.143,0.41-0.215,0.854-0.215,1.332c0,1.018,0.289,1.822,0.867,2.416c0.578,0.592,1.387,0.891,2.428,0.891
				c0.455,0,0.857-0.061,1.207-0.178c0.352-0.121,0.641-0.268,0.873-0.449c0.23-0.18,0.404-0.367,0.518-0.564
				c0.115-0.195,0.174-0.365,0.174-0.514c0-0.166-0.051-0.293-0.154-0.385c-0.104-0.09-0.238-0.137-0.404-0.137
				c-0.154,0-0.273,0.035-0.355,0.107c-0.201,0.19-0.367,0.34-0.492,0.451c-0.127,0.111-0.268,0.215-0.416,0.313
				c-0.15,0.098-0.307,0.166-0.465,0.213c-0.162,0.045-0.338,0.068-0.533,0.068c-0.287,0-0.553-0.07-0.791-0.213
				c-0.24-0.143-0.432-0.355-0.576-0.637c-0.145-0.281-0.219-0.605-0.223-0.973h3.17
				C217.264,478.234,217.592,478.174,217.824,478.053z M213.67,477.315c0.057-0.547,0.213-0.959,0.471-1.238
				c0.26-0.279,0.592-0.418,0.996-0.418c0.422,0,0.764,0.137,1.024,0.412c0.258,0.275,0.408,0.689,0.447,1.244H213.67z"/>
			<path id="XMLID_2302_" style="fill:#FFFFFF;" d="M224.211,472.133c-0.246,0-0.436,0.086-0.568,0.256
				c-0.131,0.17-0.199,0.42-0.199,0.752v2.393c-0.305-0.332-0.615-0.578-0.938-0.738c-0.32-0.16-0.713-0.24-1.18-0.24
				c-0.809,0-1.459,0.283-1.953,0.848c-0.494,0.566-0.742,1.355-0.742,2.369c0,0.478,0.063,0.924,0.188,1.336
				c0.125,0.412,0.307,0.77,0.549,1.074c0.242,0.305,0.527,0.539,0.857,0.703c0.33,0.164,0.689,0.246,1.076,0.246
				c0.295,0,0.564-0.041,0.811-0.123c0.248-0.08,0.477-0.199,0.689-0.355c0.211-0.156,0.426-0.359,0.643-0.607v0.16
				c0,0.297,0.072,0.525,0.217,0.685c0.145,0.16,0.328,0.24,0.551,0.24c0.225,0,0.408-0.078,0.551-0.232
				c0.143-0.154,0.213-0.385,0.213-0.693v-7.147c0-0.305-0.064-0.535-0.197-0.691C224.645,472.211,224.455,472.133,224.211,472.133z
				 M223.145,478.975c-0.141,0.305-0.328,0.533-0.564,0.682c-0.234,0.148-0.494,0.223-0.779,0.223c-0.283,0-0.541-0.078-0.777-0.236
				c-0.238-0.154-0.426-0.387-0.561-0.695c-0.137-0.311-0.207-0.684-0.207-1.123c0-0.414,0.064-0.779,0.193-1.096
				c0.129-0.314,0.311-0.555,0.543-0.723c0.234-0.168,0.5-0.252,0.797-0.252c0.283,0,0.547,0.082,0.785,0.244
				c0.24,0.166,0.43,0.404,0.57,0.713c0.141,0.311,0.209,0.682,0.209,1.113C223.354,478.283,223.285,478.666,223.145,478.975z"/>
			<path id="XMLID_2299_" style="fill:#FFFFFF;" d="M233.588,474.938c-0.406-0.256-0.877-0.383-1.416-0.383
				c-0.467,0-0.857,0.084-1.174,0.252c-0.316,0.168-0.627,0.412-0.932,0.727v-2.475c0-0.297-0.068-0.525-0.201-0.686
				c-0.135-0.16-0.326-0.24-0.576-0.24c-0.238,0-0.424,0.086-0.555,0.252c-0.133,0.168-0.199,0.416-0.199,0.744v7.076
				c0,0.305,0.066,0.535,0.203,0.691c0.137,0.156,0.32,0.234,0.551,0.234c0.225,0,0.412-0.078,0.557-0.234
				c0.146-0.156,0.221-0.387,0.221-0.691v-0.16c0.178,0.205,0.322,0.359,0.43,0.463c0.109,0.103,0.242,0.203,0.395,0.299
				c0.154,0.098,0.342,0.176,0.561,0.234c0.219,0.061,0.453,0.09,0.703,0.09c0.408,0,0.781-0.082,1.119-0.246
				c0.338-0.164,0.625-0.398,0.863-0.699c0.238-0.299,0.418-0.654,0.543-1.064c0.125-0.41,0.188-0.859,0.188-1.35
				c0-0.664-0.111-1.24-0.336-1.725C234.307,475.563,233.994,475.193,233.588,474.938z M232.799,479.348
				c-0.295,0.354-0.646,0.531-1.053,0.531c-0.479,0-0.865-0.174-1.16-0.522c-0.297-0.346-0.441-0.84-0.441-1.486
				c0-0.439,0.068-0.818,0.207-1.135c0.137-0.32,0.328-0.563,0.568-0.73c0.242-0.168,0.518-0.252,0.826-0.252
				c0.299,0,0.563,0.084,0.789,0.252c0.225,0.168,0.398,0.406,0.521,0.715c0.123,0.309,0.184,0.678,0.184,1.103
				C233.24,478.486,233.092,478.992,232.799,479.348z"/>
			<path id="XMLID_2298_" style="fill:#FFFFFF;" d="M240.531,474.641c-0.111-0.066-0.229-0.098-0.354-0.098
				c-0.17,0-0.303,0.029-0.395,0.09c-0.092,0.057-0.18,0.172-0.264,0.344c-0.082,0.17-0.176,0.406-0.279,0.705l-1.299,3.709
				l-1.371-3.988c-0.092-0.277-0.195-0.488-0.314-0.637c-0.119-0.148-0.295-0.223-0.529-0.223c-0.135,0-0.264,0.035-0.389,0.107
				c-0.125,0.07-0.223,0.166-0.293,0.285c-0.072,0.117-0.107,0.246-0.107,0.385c0,0.131,0.061,0.34,0.184,0.629l1.994,5.022
				l-0.148,0.361c-0.109,0.266-0.207,0.467-0.293,0.602c-0.086,0.139-0.182,0.234-0.287,0.289c-0.107,0.055-0.254,0.084-0.441,0.084
				c-0.074,0-0.162-0.014-0.266-0.037c-0.082-0.023-0.168-0.035-0.256-0.035c-0.221,0-0.389,0.051-0.5,0.15
				c-0.113,0.102-0.17,0.246-0.17,0.432c0,0.271,0.119,0.461,0.355,0.564c0.238,0.102,0.594,0.152,1.068,0.152
				c0.486,0,0.873-0.072,1.16-0.223c0.287-0.146,0.518-0.361,0.691-0.637c0.174-0.277,0.354-0.66,0.535-1.146l2.113-5.531
				c0.051-0.143,0.094-0.283,0.129-0.42c0.037-0.141,0.063-0.246,0.078-0.322c0-0.123-0.031-0.238-0.092-0.35
				C240.732,474.793,240.645,474.705,240.531,474.641z"/>
		</g>
		<g id="XMLID_2261_">
			<g id="XMLID_2276_">
				<path id="XMLID_2296_" style="fill:#FFFFFF;" d="M262.934,472.129c-0.533,0-0.955,0.068-1.262,0.203
					c-0.307,0.137-0.525,0.355-0.654,0.652c-0.129,0.301-0.19,0.703-0.19,1.211v0.488h-0.389c-0.541,0-0.814,0.191-0.814,0.582
					c0,0.174,0.064,0.315,0.197,0.422c0.133,0.111,0.314,0.164,0.559,0.164h0.447v4.295c0,0.318,0.074,0.563,0.225,0.728
					c0.156,0.17,0.346,0.254,0.576,0.254c0.242,0,0.438-0.084,0.588-0.254c0.156-0.166,0.23-0.41,0.23-0.728v-4.295h0.396
					c0.291,0,0.516-0.035,0.678-0.107c0.168-0.07,0.248-0.24,0.248-0.502c0-0.373-0.307-0.559-0.926-0.559h-0.396v-0.387
					c0-0.322,0.041-0.568,0.123-0.74c0.084-0.172,0.273-0.26,0.565-0.26c0.107,0,0.24,0.014,0.391,0.035
					c0.154,0.025,0.268,0.037,0.328,0.037c0.133,0,0.252-0.055,0.35-0.16c0.102-0.107,0.15-0.234,0.15-0.385
					C264.353,472.357,263.883,472.129,262.934,472.129z"/>
				<path id="XMLID_2295_" style="fill:#FFFFFF;" d="M268.092,474.795c-0.322-0.172-0.647-0.256-0.99-0.256
					c-0.342,0-0.609,0.084-0.818,0.256c-0.201,0.17-0.4,0.42-0.594,0.754c-0.012-0.334-0.078-0.584-0.197-0.754
					c-0.119-0.172-0.313-0.256-0.582-0.256c-0.525,0-0.789,0.365-0.789,1.094v4.514c0,0.322,0.078,0.568,0.227,0.732
					c0.148,0.168,0.338,0.25,0.578,0.25c0.236,0,0.43-0.08,0.586-0.246c0.15-0.164,0.234-0.41,0.234-0.736v-1.356
					c0-0.486,0.014-0.9,0.043-1.238c0.033-0.338,0.092-0.631,0.17-0.879c0.084-0.242,0.203-0.424,0.353-0.553
					c0.15-0.123,0.344-0.186,0.582-0.186c0.172,0,0.375,0.035,0.602,0.108c0.225,0.072,0.371,0.111,0.434,0.111
					c0.158,0,0.305-0.063,0.441-0.193c0.133-0.127,0.201-0.293,0.201-0.488C268.572,475.191,268.414,474.965,268.092,474.795z"/>
				<path id="XMLID_2292_" style="fill:#FFFFFF;" d="M274.18,478.051c0.232-0.121,0.35-0.385,0.35-0.791
					c0-0.439-0.111-0.869-0.34-1.295c-0.221-0.424-0.564-0.77-1.018-1.033c-0.451-0.27-0.996-0.404-1.629-0.404
					c-0.486,0-0.93,0.078-1.328,0.232c-0.402,0.158-0.734,0.381-1.01,0.676c-0.273,0.295-0.484,0.643-0.621,1.055
					c-0.147,0.41-0.219,0.854-0.219,1.332c0,1.018,0.291,1.824,0.869,2.418c0.578,0.594,1.387,0.889,2.43,0.889
					c0.453,0,0.857-0.061,1.207-0.178s0.641-0.27,0.875-0.447c0.232-0.182,0.404-0.367,0.521-0.566
					c0.111-0.193,0.166-0.365,0.166-0.512c0-0.166-0.049-0.293-0.152-0.385c-0.104-0.094-0.238-0.139-0.406-0.139
					c-0.152,0-0.27,0.037-0.354,0.107c-0.203,0.189-0.367,0.34-0.494,0.449c-0.127,0.113-0.264,0.219-0.414,0.313
					c-0.15,0.098-0.309,0.17-0.467,0.213c-0.16,0.049-0.336,0.07-0.531,0.07c-0.289,0-0.551-0.07-0.793-0.213
					c-0.238-0.145-0.43-0.355-0.576-0.635c-0.145-0.281-0.217-0.607-0.225-0.975h3.174
					C273.619,478.232,273.945,478.172,274.18,478.051z M270.021,477.313c0.057-0.547,0.213-0.957,0.475-1.236
					c0.26-0.281,0.592-0.418,0.992-0.418c0.428,0,0.764,0.135,1.027,0.412c0.26,0.273,0.404,0.688,0.445,1.242H270.021z"/>
				<path id="XMLID_2289_" style="fill:#FFFFFF;" d="M280.92,478.051c0.232-0.121,0.352-0.385,0.352-0.791
					c0-0.439-0.115-0.869-0.34-1.295c-0.221-0.424-0.563-0.77-1.012-1.033c-0.463-0.27-1.006-0.404-1.637-0.404
					c-0.486,0-0.932,0.078-1.33,0.232c-0.4,0.158-0.736,0.381-1.008,0.676c-0.273,0.295-0.48,0.643-0.623,1.055
					c-0.145,0.41-0.217,0.854-0.217,1.332c0,1.018,0.291,1.824,0.867,2.418c0.58,0.594,1.387,0.889,2.43,0.889
					c0.451,0,0.859-0.061,1.211-0.178c0.348-0.117,0.639-0.27,0.871-0.447c0.234-0.182,0.406-0.367,0.518-0.566
					c0.117-0.193,0.172-0.365,0.172-0.512c0-0.166-0.047-0.293-0.15-0.385c-0.104-0.094-0.238-0.139-0.406-0.139
					c-0.15,0-0.27,0.037-0.355,0.107c-0.201,0.189-0.367,0.34-0.492,0.449c-0.129,0.113-0.264,0.219-0.416,0.313
					c-0.152,0.098-0.307,0.17-0.469,0.213c-0.158,0.049-0.336,0.07-0.529,0.07c-0.289,0-0.555-0.07-0.793-0.213
					c-0.24-0.145-0.432-0.355-0.576-0.635c-0.143-0.281-0.217-0.607-0.221-0.975h3.172
					C280.357,478.232,280.688,478.172,280.92,478.051z M276.766,477.313c0.053-0.547,0.211-0.957,0.469-1.236
					c0.262-0.281,0.592-0.418,0.996-0.418c0.424,0,0.764,0.135,1.025,0.412c0.26,0.273,0.41,0.688,0.449,1.242H276.766z"/>
				<path id="XMLID_2286_" style="fill:#FFFFFF;" d="M286.932,474.938c-0.42-0.258-0.883-0.387-1.379-0.387
					c-0.414,0-0.789,0.09-1.113,0.268c-0.332,0.176-0.648,0.451-0.953,0.826v-0.193c0-0.297-0.07-0.52-0.217-0.678
					c-0.145-0.156-0.33-0.234-0.563-0.234c-0.232,0-0.416,0.078-0.551,0.229c-0.133,0.154-0.199,0.381-0.199,0.691v6.994
					c0,0.355,0.049,0.621,0.145,0.807c0.102,0.184,0.301,0.275,0.605,0.275c0.518,0,0.779-0.359,0.779-1.068v-2.434
					c0.285,0.357,0.586,0.635,0.9,0.816c0.315,0.188,0.703,0.279,1.166,0.279c0.385,0,0.742-0.076,1.08-0.227
					c0.334-0.152,0.621-0.373,0.867-0.654c0.246-0.283,0.439-0.631,0.578-1.049c0.141-0.418,0.211-0.879,0.211-1.377
					c0-0.676-0.123-1.26-0.367-1.758C287.682,475.57,287.352,475.195,286.932,474.938z M286.455,478.94
					c-0.137,0.313-0.32,0.547-0.551,0.705c-0.23,0.152-0.482,0.233-0.748,0.233c-0.455,0-0.828-0.18-1.133-0.537
					c-0.307-0.357-0.461-0.861-0.461-1.504c0-0.686,0.156-1.203,0.461-1.557c0.309-0.35,0.684-0.527,1.133-0.527
					c0.281,0,0.539,0.082,0.768,0.246c0.23,0.164,0.412,0.399,0.543,0.705c0.131,0.307,0.197,0.674,0.197,1.102
					C286.664,478.248,286.594,478.627,286.455,478.94z"/>
				<path id="XMLID_2285_" style="fill:#FFFFFF;" d="M289.902,474.539c-0.236,0-0.426,0.08-0.58,0.244
					c-0.145,0.164-0.221,0.404-0.221,0.723v4.641c0,0.313,0.076,0.555,0.221,0.728c0.154,0.17,0.344,0.254,0.58,0.254
					c0.24,0,0.432-0.082,0.59-0.25c0.154-0.164,0.229-0.41,0.229-0.732v-4.688c0-0.287-0.074-0.512-0.229-0.676
					C290.334,474.619,290.143,474.539,289.902,474.539z"/>
				<path id="XMLID_2284_" style="fill:#FFFFFF;" d="M289.92,472.199c-0.217,0-0.406,0.076-0.57,0.223
					c-0.166,0.148-0.248,0.338-0.248,0.568c0,0.252,0.08,0.447,0.242,0.586c0.158,0.137,0.35,0.209,0.576,0.209
					c0.219,0,0.408-0.072,0.566-0.211s0.234-0.334,0.234-0.584c0-0.258-0.082-0.455-0.242-0.592
					C290.318,472.266,290.133,472.199,289.92,472.199z"/>
				<path id="XMLID_2283_" style="fill:#FFFFFF;" d="M297.262,479.568l-1.662-2.613l0.859-0.789c0.439-0.394,0.66-0.713,0.66-0.951
					c0-0.191-0.068-0.354-0.201-0.482c-0.137-0.129-0.305-0.193-0.508-0.193c-0.172,0-0.313,0.043-0.432,0.131
					c-0.123,0.086-0.293,0.25-0.518,0.486l-1.824,1.912v-3.932c0-0.33-0.072-0.582-0.219-0.752c-0.148-0.17-0.346-0.256-0.592-0.256
					c-0.256,0-0.457,0.092-0.596,0.283c-0.137,0.188-0.209,0.461-0.209,0.82v6.914c0,0.322,0.074,0.568,0.217,0.732
					c0.141,0.168,0.338,0.25,0.588,0.25c0.213,0,0.404-0.084,0.566-0.254c0.164-0.166,0.244-0.406,0.244-0.719v-1.289l0.881-0.83
					l1.43,2.352c0.182,0.279,0.328,0.473,0.435,0.58c0.104,0.109,0.26,0.16,0.459,0.16c0.225,0,0.41-0.072,0.553-0.221
					c0.141-0.15,0.211-0.352,0.211-0.609c0-0.09-0.027-0.189-0.08-0.289C297.473,479.908,297.383,479.764,297.262,479.568z"/>
				<path id="XMLID_2282_" style="fill:#FFFFFF;" d="M299.453,479.342c-0.25,0-0.459,0.088-0.631,0.262
					c-0.17,0.174-0.256,0.381-0.256,0.623c0,0.287,0.09,0.51,0.268,0.664c0.18,0.16,0.389,0.238,0.635,0.238
					c0.236,0,0.443-0.078,0.623-0.24c0.176-0.158,0.262-0.381,0.262-0.662c0-0.244-0.086-0.455-0.262-0.627
					C299.912,479.43,299.701,479.342,299.453,479.342z"/>
				<path id="XMLID_2281_" style="fill:#FFFFFF;" d="M306.836,478.416c-0.164,0-0.305,0.055-0.42,0.156
					c-0.115,0.104-0.219,0.244-0.318,0.426c-0.178,0.311-0.381,0.539-0.615,0.69c-0.232,0.15-0.51,0.225-0.834,0.225
					c-0.242,0-0.463-0.045-0.666-0.141c-0.201-0.094-0.373-0.229-0.516-0.408c-0.145-0.18-0.252-0.398-0.328-0.652
					c-0.072-0.256-0.111-0.537-0.111-0.842c0-0.646,0.145-1.162,0.44-1.533c0.293-0.375,0.682-0.563,1.156-0.563
					c0.332,0,0.608,0.076,0.822,0.227c0.219,0.148,0.424,0.377,0.623,0.674c0.107,0.158,0.209,0.27,0.299,0.34
					c0.088,0.068,0.201,0.103,0.338,0.103c0.201,0,0.377-0.068,0.523-0.203c0.145-0.135,0.215-0.299,0.215-0.49
					c0-0.193-0.063-0.398-0.193-0.617c-0.127-0.219-0.315-0.424-0.555-0.621c-0.246-0.191-0.541-0.351-0.891-0.473
					c-0.353-0.125-0.736-0.186-1.156-0.186c-0.676,0-1.26,0.139-1.748,0.42c-0.484,0.277-0.857,0.672-1.113,1.182
					c-0.258,0.512-0.387,1.098-0.387,1.766c0,0.98,0.281,1.764,0.842,2.35c0.563,0.582,1.344,0.875,2.346,0.875
					c0.471,0,0.897-0.064,1.272-0.191c0.375-0.125,0.688-0.295,0.934-0.502s0.434-0.426,0.553-0.656
					c0.123-0.229,0.184-0.445,0.184-0.647c0-0.168-0.066-0.33-0.199-0.48C307.201,478.492,307.037,478.416,306.836,478.416z"/>
				<path id="XMLID_2278_" style="fill:#FFFFFF;" d="M313.65,475.453c-0.289-0.291-0.629-0.518-1.027-0.676
					c-0.402-0.16-0.846-0.238-1.336-0.238c-0.482,0-0.924,0.078-1.326,0.234c-0.398,0.158-0.738,0.379-1.021,0.668
					c-0.279,0.289-0.496,0.637-0.646,1.045c-0.147,0.408-0.225,0.858-0.225,1.35c0,0.484,0.076,0.93,0.221,1.332
					c0.148,0.4,0.367,0.75,0.656,1.047c0.285,0.293,0.625,0.521,1.016,0.676c0.393,0.16,0.836,0.24,1.326,0.24
					c0.492,0,0.936-0.08,1.336-0.234c0.395-0.158,0.736-0.383,1.02-0.676c0.287-0.291,0.502-0.641,0.656-1.049
					c0.146-0.408,0.223-0.855,0.223-1.336c0-0.488-0.076-0.932-0.221-1.34C314.152,476.096,313.935,475.748,313.65,475.453z
					 M312.459,479.367c-0.291,0.373-0.682,0.559-1.172,0.559c-0.324,0-0.603-0.086-0.848-0.254
					c-0.238-0.168-0.422-0.408-0.551-0.729c-0.129-0.316-0.193-0.684-0.193-1.107c0-0.428,0.066-0.803,0.197-1.125
					c0.129-0.32,0.313-0.563,0.555-0.727c0.242-0.164,0.521-0.246,0.84-0.246c0.49,0,0.881,0.182,1.172,0.555
					c0.289,0.367,0.435,0.881,0.435,1.543C312.895,478.486,312.748,478.998,312.459,479.367z"/>
				<path id="XMLID_2277_" style="fill:#FFFFFF;" d="M323.57,474.813c-0.318-0.172-0.703-0.262-1.145-0.262
					c-0.379,0-0.725,0.08-1.037,0.24c-0.316,0.162-0.607,0.408-0.885,0.738c-0.189-0.326-0.428-0.572-0.723-0.734
					c-0.293-0.162-0.643-0.244-1.047-0.244c-0.395,0-0.748,0.078-1.07,0.24c-0.32,0.156-0.621,0.404-0.904,0.738v-0.152
					c0-0.262-0.074-0.467-0.221-0.617c-0.15-0.145-0.334-0.221-0.557-0.221c-0.227,0-0.412,0.078-0.557,0.238
					c-0.139,0.158-0.209,0.389-0.209,0.695v4.635c0,0.338,0.078,0.592,0.234,0.766c0.154,0.17,0.357,0.258,0.605,0.258
					c0.248,0,0.447-0.088,0.6-0.258c0.152-0.174,0.229-0.428,0.229-0.766v-2.188c0-0.684,0.084-1.207,0.252-1.566
					c0.168-0.369,0.518-0.551,1.049-0.551c0.264,0,0.459,0.072,0.582,0.221c0.121,0.141,0.197,0.33,0.227,0.551
					c0.027,0.227,0.039,0.545,0.039,0.953v2.58c0,0.342,0.078,0.594,0.232,0.768c0.148,0.17,0.35,0.256,0.596,0.256
					c0.254,0,0.453-0.086,0.607-0.256c0.158-0.174,0.232-0.426,0.232-0.768v-2.152c0-0.695,0.063-1.178,0.178-1.453
					c0.107-0.209,0.258-0.383,0.451-0.508c0.191-0.125,0.393-0.191,0.607-0.191c0.266,0,0.465,0.072,0.598,0.215
					c0.127,0.143,0.209,0.318,0.238,0.529c0.027,0.209,0.043,0.486,0.043,0.836v2.725c0,0.338,0.078,0.592,0.234,0.766
					c0.158,0.17,0.355,0.258,0.604,0.258c0.252,0,0.459-0.086,0.611-0.256c0.154-0.174,0.23-0.426,0.23-0.768v-3.162
					c0-0.629-0.068-1.092-0.207-1.387C324.131,475.236,323.893,474.986,323.57,474.813z"/>
			</g>
			<g id="XMLID_2262_">
				<path id="XMLID_2275_" style="fill:#FFFFFF;" d="M245.275,477.443c-0.002-0.004-0.002-0.006-0.002-0.006
					S245.273,477.44,245.275,477.443z"/>
				<path id="XMLID_2274_" style="fill:#FFFFFF;" d="M245.357,477.961L245.357,477.961c-0.029-0.146-0.055-0.295-0.072-0.438
					C245.303,477.668,245.328,477.816,245.357,477.961z"/>
				<path id="XMLID_2273_" style="fill:#FFFFFF;" d="M245.893,479.465c-0.002-0.006-0.006-0.014-0.01-0.021
					C245.887,479.451,245.891,479.459,245.893,479.465z"/>
				<path id="XMLID_2272_" style="fill:#FFFFFF;" d="M245.842,479.365c-0.014-0.027-0.027-0.057-0.041-0.084
					C245.814,479.31,245.828,479.338,245.842,479.365z"/>
				<path id="XMLID_2271_" style="fill:#FFFFFF;" d="M245.508,478.541c0.08,0.25,0.176,0.492,0.285,0.723
					c-0.113-0.236-0.205-0.479-0.283-0.723H245.508z"/>
				<path id="XMLID_2270_" style="fill:#FFFFFF;" d="M250.738,470.682l-0.076-0.26c0.299-0.063,0.523-0.33,0.523-0.647
					c0-0.363-0.297-0.66-0.66-0.66c-0.365,0-0.66,0.297-0.66,0.66c0,0.316,0.225,0.584,0.523,0.647l0.084,0.289
					c-1.021,0.141-1.834,0.539-1.834,0.539l0.143,0.44c0.617-0.205,1.154-0.33,1.641-0.383c0.475-0.051,0.834-0.072,1.127-0.072
					c0.313,0,0.545,0.025,0.807,0.068l0.078-0.475C252.434,470.828,251.701,470.602,250.738,470.682z"/>
				<path id="XMLID_2269_" style="fill:#FFFFFF;" d="M245.455,473.188c-0.018,0.023-0.496,0.465-0.875,1.281
					c-0.016-0.027-0.035-0.053-0.057-0.076c-0.113-0.123-0.273-0.188-0.473-0.184h-0.01c-0.125,0-0.211-0.041-0.268-0.092
					c0.057-0.07,0.09-0.16,0.09-0.258c0-0.23-0.188-0.42-0.418-0.42s-0.418,0.189-0.418,0.42c0,0.23,0.188,0.416,0.418,0.416
					c0.035,0,0.07-0.004,0.104-0.012c0.104,0.113,0.266,0.215,0.504,0.209c0.125-0.002,0.215,0.031,0.273,0.098
					c0.07,0.074,0.094,0.184,0.102,0.266l-0.002,0.004c-0.273,0.744-0.195,1.668-0.195,1.668l0.66,0.025
					c0.014-0.336,0.063-0.924,0.232-1.393c0.33-0.906,0.742-1.471,0.758-1.496l0.004-0.004c0.023-0.031,0.047-0.06,0.07-0.09
					l-0.195-0.141L245.455,473.188z"/>
				<path id="XMLID_2268_" style="fill:#FFFFFF;" d="M257.297,471.787c-0.23,0-0.418,0.186-0.418,0.416
					c0,0.037,0.006,0.072,0.016,0.105c-0.115,0.104-0.215,0.266-0.211,0.506c0.002,0.123-0.031,0.213-0.098,0.273
					c-0.053,0.047-0.119,0.07-0.184,0.086c-0.492-0.688-1.098-1.109-1.098-1.109l-0.475,0.51c0.359,0.326,0.723,0.734,1.08,1.244
					c0.244,0.352,0.5,0.805,0.711,1.258l0.639-0.305c0,0-0.291-0.721-0.703-1.369c0.072-0.025,0.143-0.063,0.207-0.119
					c0.125-0.113,0.188-0.273,0.184-0.475c-0.002-0.129,0.039-0.217,0.092-0.275c0.072,0.055,0.16,0.09,0.258,0.09
					c0.232,0,0.418-0.188,0.418-0.42C257.715,471.973,257.529,471.787,257.297,471.787z"/>
				<path id="XMLID_2267_" style="fill:#FFFFFF;" d="M255.637,477.537c-0.881,0.428-2.332,0.996-4.236,1.262
					c-0.752,0.104-1.477,0.143-2.145,0.143c-0.869,0-1.637-0.064-2.227-0.141c-0.672-0.082-1.197-0.188-1.52-0.26
					c0.078,0.244,0.17,0.486,0.283,0.723c0,0,0.006,0.014,0.008,0.018c0.014,0.027,0.027,0.057,0.041,0.084
					c0.014,0.027,0.027,0.055,0.041,0.078c0.004,0.008,0.008,0.016,0.01,0.021c0.189,0.357,0.418,0.684,0.676,0.969
					c0.9,0.984,1.816,1.139,1.826,1.141l0.014,0.002l0.014,0.004c0.008,0.004,0.82,0.266,2.057,0.266
					c1.217,0,2.41-0.244,3.547-0.729c0.842-0.432,1.639-1.086,2.033-1.668c0.305-0.453,0.525-0.934,0.656-1.434
					c0.068-0.266,0.121-0.693,0.09-1.141C256.559,477.041,256.166,477.279,255.637,477.537z"/>
				<path id="XMLID_2263_" style="fill:#FFFFFF;" d="M252.326,471.654c-0.266-0.043-0.477-0.068-0.777-0.068
					c-0.279,0-0.627,0.023-1.09,0.07c-0.465,0.049-0.982,0.172-1.584,0.373c-0.842,0.283-1.604,0.725-2.203,1.281l-0.02,0.018
					c-0.09,0.082-0.275,0.254-0.488,0.525c-0.025,0.037-0.408,0.578-0.709,1.408c-0.227,0.621-0.217,1.527-0.217,1.537v0.002
					c0,0.211,0.012,0.422,0.035,0.631c0,0,0,0.008,0.002,0.012c0.002,0.027,0.008,0.053,0.01,0.08
					c0.018,0.143,0.043,0.291,0.074,0.438c0.438,0.111,3.047,0.721,5.967,0.314c1.828-0.254,3.217-0.795,4.059-1.205
					c0.703-0.34,1.154-0.647,1.328-0.773c-0.174-0.643-0.652-1.65-1.09-2.277C254.371,472.228,253.018,471.77,252.326,471.654z
					 M248.682,476.914c-0.973,0-1.76-0.787-1.76-1.76c0-0.973,0.787-1.76,1.76-1.76c0.973,0,1.76,0.787,1.76,1.76
					C250.441,476.127,249.654,476.914,248.682,476.914z M253.832,475.617c-0.602,0-1.088-0.49-1.088-1.09
					c0-0.604,0.486-1.09,1.088-1.09c0.6,0,1.088,0.486,1.088,1.09C254.92,475.127,254.432,475.617,253.832,475.617z"/>
			</g>
		</g>
	</g>
</g>
</svg>
