<svg width="610" height="890" viewBox="0 0 610 890" fill="none" xmlns="http://www.w3.org/2000/svg">
<g filter="url(#filter0_d_0_4)">
<path d="M110.306 124.135C110.306 101.417 128.723 83 151.441 83H342.228C364.947 83 383.364 101.417 383.364 124.135V206.821V206.821C385.372 206.821 387 208.449 387 210.457V255.354C387 257.363 385.372 258.991 383.364 258.991V258.991V601.865C383.364 624.583 364.947 643 342.228 643H151.441C128.723 643 110.306 624.583 110.306 601.865V282.434V282.434C108.488 282.434 107 280.961 107 279.143V241.48C107 239.662 108.488 238.189 110.306 238.189V238.189V229.934V229.934C108.488 229.934 107 228.461 107 226.643V187.659C107 185.841 108.488 184.368 110.306 184.368V184.368V124.135Z" fill="#EEEEEE"/>
</g>
<defs>
<filter id="filter0_d_0_4" x="0.0479012" y="0.729156" width="609.083" height="889.083" filterUnits="userSpaceOnUse" color-interpolation-filters="sRGB">
<feFlood flood-opacity="0" result="BackgroundImageFix"/>
<feColorMatrix in="SourceAlpha" type="matrix" values="0 0 0 0 0 0 0 0 0 0 0 0 0 0 0 0 0 0 127 0" result="hardAlpha"/>
<feOffset dx="57.5896" dy="82.2708"/>
<feGaussianBlur stdDeviation="82.2708"/>
<feColorMatrix type="matrix" values="0 0 0 0 0 0 0 0 0 0 0 0 0 0 0 0 0 0 0.17 0"/>
<feBlend mode="normal" in2="BackgroundImageFix" result="effect1_dropShadow_0_4"/>
<feBlend mode="normal" in="SourceGraphic" in2="effect1_dropShadow_0_4" result="shape"/>
</filter>
</defs>
</svg>
